<svg t="1697456441586" class="icon" viewBox="0 0 1024 1024" version="1.1" xmlns="http://www.w3.org/2000/svg" p-id="3341" width="200" height="200"><path d="M582.997333 270.634667c0 17.664 14.336 32 32 32h106.368v106.368a32 32 0 0 0 64 0V270.634667a32 32 0 0 0-32-32h-138.368a32 32 0 0 0-32 32zM753.365333 582.997333a32 32 0 0 0-32 32v106.368h-106.368a32 32 0 1 0 0 64h138.368a32 32 0 0 0 32-32v-138.368a32 32 0 0 0-32-32zM270.634667 582.997333a32 32 0 0 1 32 32v106.368h106.368a32 32 0 1 1 0 64H270.634667a32 32 0 0 1-32-32v-138.368a32 32 0 0 1 32-32zM441.002667 270.634667a32 32 0 0 1-32 32H302.634667v106.368a32 32 0 0 1-64 0V270.634667a32 32 0 0 1 32-32h138.368a32 32 0 0 1 32 32z" fill="#000000" p-id="3342"></path></svg>