<svg t="1697456408820" class="icon" viewBox="0 0 1024 1024" version="1.1" xmlns="http://www.w3.org/2000/svg" p-id="3181" width="200" height="200"><path d="M224.213333 158.890667c-4.266667-50.858667 52.693333-78.933333 91.818667-52.821334l12.629333 8.448a3876.778667 3876.778667 0 0 1 539.221334 434.346667c41.386667 39.936 4.906667 102.912-46.677334 97.365333l-224.682666-24.064a51.541333 51.541333 0 0 0-52.650667 29.013334l-90.837333 200.405333c-21.930667 48.426667-94.165333 43.946667-108.544-8.32a3669.930667 3669.930667 0 0 1-119.04-669.568l-1.28-14.805333z m64.725334 6.058666l0.298666 3.413334a3605.717333 3605.717333 0 0 0 112.469334 641.493333l83.882666-185.088c20.48-45.226667 68.437333-71.509333 117.76-66.218667l205.056 21.973334A3813.76 3813.76 0 0 0 293.12 167.68l-4.181333-2.773333z" fill="#000000" p-id="3182"></path></svg>